<?xml version="1.0" encoding="UTF-8" standalone="no"?>
<!DOCTYPE svg PUBLIC "-//W3C//DTD SVG 1.1//EN" "http://www.w3.org/Graphics/SVG/1.1/DTD/svg11.dtd">
<!-- Created with Vectornator (http://vectornator.io/) -->
<svg height="100%" stroke-miterlimit="10" style="fill-rule:nonzero;clip-rule:evenodd;stroke-linecap:round;stroke-linejoin:round;" version="1.1" viewBox="0 0 141.75 141.75" width="100%" xml:space="preserve" xmlns="http://www.w3.org/2000/svg" xmlns:vectornator="http://vectornator.io" xmlns:xlink="http://www.w3.org/1999/xlink">
<symbol id="cross" viewBox="40 -40 180 180">
    <defs/>
    <clipPath id="ArtboardFrame">
        <rect height="141.75" width="141.75" x="0" y="0"/>
    </clipPath>
        <g clip-path="url(#ArtboardFrame)" id="Layer-1" vectornator:layerName="Layer 1">
        <g opacity="1">

    <path d="M47.2188 7.3125C46.3106 7.30212 45.3882 7.34164 44.5 7.53125C43.4788 7.74926 42.4669 8.06754 41.5312 8.53125C40.5343 9.02534 39.5619 9.61422 38.75 10.375C37.7878 11.2766 36.9377 12.3125 36.25 13.4375C35.6696 14.387 35.267 15.4509 35 16.5312C34.6973 17.756 34.5738 19.0509 34.5625 20.3125C34.5545 21.2018 34.7564 22.0668 34.9375 22.9375C35.4404 25.3561 36.7624 27.4867 38.125 29.5C39.8905 32.1087 41.8737 34.5656 43.75 37.0938C45.6443 39.582 48.3599 41.0222 51.2188 41.5C57.0345 49.6824 62.5177 58.09 67.75 66.6562C62.9962 70.4735 58.1904 74.2228 53.5312 78.1562C46.4984 84.0936 39.5981 90.1916 32.5625 96.125C30.5856 97.7922 28.5914 99.4515 26.5938 101.094C24.9198 102.47 23.2694 103.845 21.5938 105.219C20.2478 106.323 18.8743 107.424 17.5312 108.531C16.6318 109.273 15.7278 110.021 14.8438 110.781C10.7842 114.272 5.91026 119.639 8.5625 125.406C8.94137 126.23 9.46442 127.003 10.0938 127.656C12.3321 129.979 15.4479 130.843 18.5938 131C22.9235 131.216 27.3914 130.245 31.6562 129.594C33.6685 129.287 35.681 128.968 37.6875 128.625C47.5616 126.938 57.3994 125.004 67.25 123.188C74.3646 121.875 81.5343 120.441 88.7812 120.125C92.1883 119.976 95.8147 119.973 99.1562 120.75C100.931 121.163 102.596 121.898 104.344 122.406C106.713 123.096 109.214 123.518 111.688 123.281C115.509 122.916 119.695 121.349 121.625 117.781C121.946 117.189 122.383 116.609 122.438 115.938C122.596 113.97 122.598 111.974 122.25 110.031C122.084 109.103 121.442 108.328 120.938 107.531C119.725 105.617 117.92 104.079 116.406 102.406C115.308 101.193 113.961 99.6113 112.75 98.2812C109.323 94.5167 105.84 90.8108 103 86.5625C100.52 82.8526 98.4704 78.8871 96.4688 74.9062C94.2864 70.5659 92.1265 66.1801 89.875 61.875C88.8597 59.9337 87.7143 58.0748 86.6562 56.1562C95.0301 48.9867 103.473 41.9029 111.5 34.3438C117.675 28.5295 123.528 22.4129 128.969 15.9062C123.168 22.0544 116.99 27.8032 110.5 33.2188C102.208 40.1388 93.5446 46.5748 84.9375 53.0938C80.3072 44.913 75.4276 36.871 70.25 29.0312C66.8304 23.8534 63.2777 18.7824 59.0938 14.1875C57.1286 12.0293 55.0881 9.86349 52.4062 8.59375C50.794 7.83041 49.0154 7.33303 47.2188 7.3125ZM70.2188 70.7812C73.2182 75.8907 76.1104 81.1011 79.25 86.125C82.8905 91.9506 86.8826 97.5367 91.4375 102.688C91.9998 103.323 92.6166 103.904 93.1875 104.531C88.4058 104.752 83.6504 105.307 78.9688 106.312C73.3925 107.51 67.8591 108.991 62.3438 110.438C53.9997 112.626 45.6901 114.88 37.3125 116.938C32.5216 118.114 27.6881 119.276 22.8438 120.219C21.5172 120.477 20.1978 120.707 18.8438 120.75C18.6654 120.756 18.4876 120.735 18.3125 120.719C18.5252 120.42 18.6503 120.065 18.75 119.938C20.3788 117.855 22.457 116.115 24.375 114.312C31.0408 108.046 37.7437 101.808 44.25 95.375C52.7359 86.9845 61.4057 78.82 70.2188 70.7812ZM109.688 106C109.494 106.049 109.358 106.075 109.812 106.062C109.848 106.062 109.873 106.082 109.906 106.094C109.965 106.114 109.78 106.118 109.719 106.125C109.671 106.13 109.642 106.16 109.594 106.156C109.515 106.151 109.428 106.134 109.344 106.125C109.449 106.078 109.578 106.037 109.688 106Z" fill="#ff0000" stroke="none"/>
        </g>
        </g>
</symbol>
</svg>
